<?xml version="1.0" encoding="utf-8"?>
<!-- Generator: Adobe Illustrator 24.0.3, SVG Export Plug-In . SVG Version: 6.00 Build 0)  -->
<svg version="1.1" id="Layer_1" xmlns="http://www.w3.org/2000/svg" xmlns:xlink="http://www.w3.org/1999/xlink" x="0px" y="0px"
	 viewBox="0 0 277 91" style="enable-background:new 0 0 277 91;" xml:space="preserve">
<style type="text/css">
	.st0{fill:#2CA243;stroke:#2CA243;}
	.st1{fill-rule:evenodd;clip-rule:evenodd;fill:#006330;}
	.st2{fill-rule:evenodd;clip-rule:evenodd;fill:#B9853E;}
	.st3{fill-rule:evenodd;clip-rule:evenodd;fill:#2CA243;}
	.st4{fill-rule:evenodd;clip-rule:evenodd;fill:#FDBE57;}
	.st5{fill:none;}
</style>
<g>
	<g id="Grupo_1" transform="translate(0 0)">
		<g id="Grupo_4" transform="translate(68.914 15.138)">
			<path id="Trazado_18" class="st0" d="M33.2,41.2c-2.9,1.6-6.2,2.5-9.6,2.6C14.9,43.8,9,37.3,9,28.6s6-15.2,14.8-15.2
				c3-0.1,6.1,0.6,8.7,2.1l0.2,6.3H30l-1.1-6.4l2.7,0.9v2.5c-2-2-4.7-3.1-7.5-3.1c-6.1,0-10.6,4.7-10.6,13c0,8.3,4.1,13,10.9,13
				c2.4,0,4.7-0.6,6.8-1.8l-2,2v-2.5c0-3.3,0-6.7-0.1-10h4.2c-0.1,3.3-0.1,6.6-0.1,10L33.2,41.2z M24.6,31.1v-1.7h11.3v1.7l-4.8,0.4
				h-0.9L24.6,31.1z"/>
			<path id="Trazado_19" class="st0" d="M56.5,30.3c0,0.8-0.1,1.6-0.3,2.4h-16v-1.8h10.3c2.1,0,2.6-1,2.6-2.2c0-2.6-2.2-4.7-4.8-4.7
				c-2.8,0-6,2.3-6,8.6c0,5.5,2.8,8.5,7.1,8.5c2.4,0,4.7-1.1,6.1-3.1l1,0.8c-1.5,3.2-4.8,5.2-8.3,5c-5.8,0-9.6-4-9.6-10.6
				c0-6.6,4.5-11.1,9.9-11.1C52.9,22,56.5,25,56.5,30.3z"/>
			<path id="Trazado_20" class="st0" d="M60.7,32.9c0-7.2,4.9-11,9.9-11c4.9,0,9.9,3.7,9.9,11s-5,10.8-9.9,10.8
				C65.6,43.7,60.7,40.2,60.7,32.9z M76.6,32.9c0-5.8-2.2-9-6-9c-3.9,0-6,3.2-6,9s2.1,8.8,6,8.8C74.3,41.8,76.6,38.8,76.6,32.9
				L76.6,32.9z"/>
			<path id="Trazado_21" class="st0" d="M94.7,52.1v1.5H83.6v-1.5l4.9-0.9h0.9L94.7,52.1z M87.2,32c0-2.4,0-3.7-0.1-5.5l-3.5-0.4
				v-1.5l5.9-2.6l0.7,0.4l0.3,3.7l0.2,0.1v13.6L90.6,40v4.3c0,3,0,6.2,0.1,9.2h-3.6c0.1-3,0.1-6.1,0.1-9.1L87.2,32z M96.1,24.4
				c-1.6,0-3.8,0.8-7,3.9l-0.4-0.8c2.5-3.8,5.3-5.5,8.3-5.5c4.6,0,8.3,4.1,8.3,10.8s-3.8,11-8.9,11c-2.7,0-5.3-1.2-7.6-5.7l0.4-0.7
				c2.3,2.9,4.3,4,6.5,4c3.3,0,6-2.6,6-8.2S99.3,24.4,96.1,24.4z"/>
			<path id="Trazado_22" class="st0" d="M109.3,32.9c0-7.2,4.9-11,9.9-11c4.9,0,9.9,3.7,9.9,11s-5,10.8-9.9,10.8
				C114.2,43.7,109.3,40.2,109.3,32.9z M125.2,32.9c0-5.8-2.2-9-6-9c-3.9,0-6,3.2-6,9s2.1,8.8,6,8.8C123,41.8,125.2,38.8,125.2,32.9
				L125.2,32.9z"/>
			<path id="Trazado_23" class="st0" d="M136.2,34v-2c0-2.4,0-3.7-0.1-5.5l-3.5-0.4v-1.5l5.9-2.6l0.7,0.4l0.5,5.4V34
				c0,2.7,0,7.2,0.1,9.1h-3.7C136.2,41.2,136.2,36.7,136.2,34z M133,41.6l4.8-0.9h0.9l4.8,0.9v1.5H133V41.6z M138,28.2h2.5l-1.1,0.3
				c1.4-4,4-6.5,6.6-6.5c1.2,0,2.4,0.5,3.1,1.5c0,2-0.8,3.2-2.5,3.2c-1,0-1.9-0.4-2.6-1l-1.2-1l2.1-0.4c-2.7,1.4-4.3,3.6-5.3,6.9
				H138L138,28.2z"/>
			<path id="Trazado_24" class="st0" d="M160.2,41.5c1.1-0.1,2.1-0.5,3-1.2l1,1.2c-1.2,1.5-3.1,2.3-5,2.2c-3,0-4.9-1.6-4.9-4.9
				c0-1,0-2,0-3.7V24.8h-3.6v-1.9l5.4-0.7l-1.7,1.4l1.3-7h2.5l-0.3,7.6v14.1C157.7,40.6,158.7,41.5,160.2,41.5z M163.7,22.6v2.3H156
				v-2.3H163.7z"/>
			<path id="Trazado_25" class="st0" d="M173.4,31.8c2.2-0.8,4.4-1.4,6.7-1.8v1.6c-2,0.4-3.9,1-5.8,1.7c-3.9,1.5-4.3,3.2-4.3,4.4
				c0,2.3,1.5,3.2,3.5,3.2c1.5,0,2.4-0.6,5.1-2.5l0.9-0.7l0.6,0.9l-1.3,1.3c-2.6,2.6-4.1,3.8-6.7,3.8c-3.2,0-5.8-1.8-5.8-5.4
				C166.2,35.9,167.5,33.9,173.4,31.8z M178.4,39.2v-9.9c0-4.3-1.2-5.3-4.1-5.3c-1.3,0-2.7,0.3-3.9,0.8l1.7-1.3l-1.1,3.7
				c-0.4,1.3-1,2-2.2,2c-1,0.1-1.8-0.6-1.9-1.6c0-0.1,0-0.1,0-0.2c0.8-3.3,4-5.3,8.4-5.3c4.5,0,6.6,2,6.6,7.5v9.2
				c0,2,0.6,2.7,1.6,2.7c0.7,0,1.3-0.4,1.7-1l0.9,1c-0.7,1.4-2.1,2.2-3.7,2.2C179.9,43.6,178.4,41.9,178.4,39.2L178.4,39.2z"/>
			<path id="Trazado_26" class="st0" d="M194,11l0.6,0.3l-0.2,6.2V34c0,3,0,6.1,0.1,9.1h-3.7c0.1-3,0.1-6.1,0.1-9.1V14.9l-3.6-0.4
				V13L194,11z M198.1,41.6v1.5h-10.7v-1.5l4.9-0.9h0.9L198.1,41.6z"/>
		</g>
		<g id="Grupo_5" transform="translate(0 0)">
			<path id="Trazado_27" class="st1" d="M27.2,74.4c0.4,0.3,1,0.3,1.5,0.1c0.6-0.3,1-0.9,1-1.6c0.1-0.9-0.1-1.9-0.6-2.7
				c-0.3-0.9-0.9-1.6-1.6-2.2c-0.1-0.1-0.2-0.1-0.3-0.2V67c0.5,0,0.9,0,1.3,0.2c0.5,0.2,1,0.4,1.4,0.8c0.4,0.4,0.7,0.8,1,1.3
				c0.2,0.4,0.3,0.9,0.4,1.3c0,0.4,0,0.9-0.1,1.3c-0.1,0.6-0.4,1.2-0.8,1.7c-0.4,0.5-1,0.9-1.6,1.1c-0.5,0.2-1,0.3-1.5,0.4h-0.1
				L27.2,74.4z M25.2,71.9c0.3,0.9,0.9,1.6,1.6,2.2c0.1,0.1,0.2,0.1,0.3,0.2v0.8c-1,0-2-0.3-2.7-1c-0.4-0.4-0.7-0.9-1-1.4
				c-0.2-0.5-0.4-1.1-0.4-1.7c0-1.1,0.5-2.1,1.2-2.8c0.4-0.4,0.8-0.6,1.3-0.8c0.5-0.2,1-0.3,1.5-0.4c0,0,0.1,0,0.1,0v0.8
				c-0.4-0.3-1-0.3-1.4-0.1c-0.6,0.3-1,0.9-1,1.5C24.6,70.2,24.8,71.1,25.2,71.9z"/>
			<path id="Trazado_28" class="st1" d="M55.4,78.4V78h0.9l-0.9-2.5l0,0v-1l0.5-1.3h0.3l2.6,6.8c0.1,0.2,0.2,0.4,0.4,0.6
				c0.2,0.1,0.4,0.2,0.6,0.1v0.4c-0.3,0-0.6,0-0.9-0.1s-0.6,0-0.9,0s-0.6,0-0.9,0s-0.6,0-0.8,0.1l0-0.4l0.4-0.1c0.1,0,0.2,0,0.3-0.1
				c0.1,0,0.1-0.1,0.1-0.2c0,0,0-0.1,0-0.1c0-0.1,0-0.1-0.1-0.3l-0.5-1.6L55.4,78.4z M55.4,74.5v1l-0.8,2c0,0,0,0.1-0.1,0.2
				c0,0,0,0.1,0,0.1c0,0.1,0,0.1,0.1,0.1c0.1,0,0.2,0,0.3,0h0.5v0.4h-0.7c-0.1,0-0.2,0-0.4,0.1c-0.1,0.1-0.1,0.2-0.2,0.3L53.6,80
				c0,0.1-0.1,0.2-0.1,0.3c0,0.1,0,0.1,0,0.2c0,0.1,0,0.2,0.1,0.2c0.1,0.1,0.2,0.1,0.4,0.1l0.4,0v0.4c-0.2,0-0.3,0-0.5-0.1
				s-0.4,0-0.5,0s-0.4,0-0.5,0c-0.1,0-0.3,0-0.4,0v-0.4c0.2,0,0.4-0.1,0.5-0.2c0.2-0.2,0.3-0.4,0.4-0.6L55.4,74.5z M52.3,75.3
				L52.3,75.3c0.1-0.3,0.1-0.5,0-0.7c0-0.2,0-0.4,0-0.7c0-0.2,0-0.3,0-0.4c0-0.1,0-0.1,0-0.2h-0.1V75.3z M36.3,81.2l-2.9-7
				c0-0.1-0.1-0.2-0.2-0.3c-0.1-0.1-0.2-0.1-0.3-0.1l-0.3-0.1v-0.4c0.3,0,0.6,0.1,0.9,0.1s0.6,0,0.9,0c0.2,0,0.5,0,0.7,0
				s0.5,0,0.9-0.1l0,0.3l-0.5,0.1c-0.1,0-0.2,0-0.3,0.1c-0.1,0-0.1,0.1-0.1,0.1c0,0,0,0.1,0,0.1c0,0.1,0,0.1,0,0.2l1.8,4.7l1.8-4.3
				c0-0.1,0.1-0.2,0.1-0.3c0-0.1,0-0.1,0-0.2c0-0.1,0-0.2-0.1-0.2c-0.1-0.1-0.3-0.1-0.4-0.1l-0.5-0.1v-0.3c0.1,0,0.3,0,0.4,0
				s0.3,0,0.5,0c0.2,0,0.5,0,0.7,0s0.4,0,0.7-0.1v0.4c-0.2,0.1-0.4,0.2-0.5,0.3c-0.2,0.2-0.3,0.4-0.4,0.7l-2,4.8
				c-0.1,0.2-0.2,0.4-0.3,0.7s-0.2,0.6-0.4,1L36.3,81.2z M52.3,73.3v2H52c0-0.5-0.2-0.9-0.5-1.2c-0.5-0.3-1.1-0.4-1.7-0.4
				c0,0.5,0,1,0,1.4s0,1.2,0,2.1c0,0.9,0,1.6,0,2.2s0,0.9,0,0.9c0,0.1,0,0.1,0.1,0.2c0.1,0,0.2,0.1,0.3,0.1l0.8,0.1v0.4
				c-0.3,0-0.7,0-1-0.1s-0.7,0-1.1,0s-0.7,0-1.1,0s-0.7,0-1,0.1v-0.4l0.9-0.1c0.1,0,0.1,0,0.2,0c0,0,0.1-0.1,0.1-0.1
				c0-0.2,0-0.4,0-0.6c0-0.4,0-1.2,0-2.7c0-0.9,0-1.6,0-2.1s0-1,0-1.4c-0.6,0-1.1,0.1-1.6,0.4c-0.4,0.3-0.6,0.8-0.6,1.3l-0.4,0
				c0-0.3,0-0.5,0-0.7s0-0.4,0-0.4l0-0.9c0.5,0,0.9,0,1.2,0s0.6,0,0.9,0h2.9c0.2,0,0.5,0,0.8,0S51.8,73.4,52.3,73.3L52.3,73.3z
				 M52.3,80.7C52.3,80.7,52.3,80.7,52.3,80.7l-0.1,0.4c0,0,0.1,0,0.1,0C52.3,81.1,52.3,80.7,52.3,80.7z M40.6,81.1v-0.4l0.8-0.1
				c0.1,0,0.1,0,0.2,0c0,0,0.1,0,0.1-0.1c0-0.2,0-0.4,0-0.7c0-0.4,0-1.3,0-2.7c0-0.9,0-1.7,0-2.2s0-0.9,0-1c0-0.1,0-0.1-0.1-0.2
				c-0.1,0-0.2-0.1-0.3-0.1l-0.7-0.1v-0.3c0.4,0,0.8,0,1.1,0.1s0.6,0,0.9,0s0.6,0,0.9,0s0.7,0,1-0.1v0.3l-0.8,0.1
				c-0.1,0-0.1,0-0.2,0c0,0-0.1,0-0.1,0.1c0,0.2,0,0.4,0,0.6c0,0.4,0,1.3,0,2.7c0,0.8,0,1.6,0,2.2s0,1,0,1c0,0.1,0,0.1,0.1,0.2
				c0.1,0,0.2,0.1,0.2,0.1l0.8,0.1v0.4c-0.3,0-0.7,0-1-0.1s-0.7,0-1,0s-0.7,0-1.1,0S41,81.1,40.6,81.1L40.6,81.1z"/>
			<path id="Trazado_29" class="st1" d="M20.3,81.1v-0.4h0L20.3,81.1L20.3,81.1L20.3,81.1z M20.3,77.3c0.2,0,0.4,0.1,0.5,0.2
				c0.3,0.4,0.5,1,0.5,1.5c0,0.1,0,0.2,0,0.4c0,0.5,0.1,1,0.5,1.4c0.2,0.1,0.3,0.2,0.5,0.2c0.3,0.1,0.6,0.1,0.9,0.1h0.3
				c0.1,0,0.1,0,0.2,0v-0.3h0c-0.4,0-0.7-0.4-0.7-1.2c0-0.2,0-0.3,0-0.4c0-0.6-0.2-1.2-0.6-1.6c-0.4-0.4-1-0.6-1.6-0.6v-0.1
				c0.6-0.1,1.1-0.3,1.5-0.6c0.3-0.3,0.5-0.8,0.5-1.2c0-0.5-0.2-1-0.6-1.2c-0.5-0.3-1.1-0.5-1.7-0.4c-0.1,0-0.2,0-0.3,0v0.4
				c0.2,0,0.5,0.1,0.6,0.3c0.3,0.3,0.5,0.7,0.4,1.2c0,0.4-0.1,0.9-0.5,1.2c-0.2,0.1-0.4,0.2-0.6,0.3L20.3,77.3z M13.3,77
				c0.2-0.1,0.4-0.2,0.5-0.3c0.3-0.4,0.5-0.9,0.5-1.3c0-0.4-0.1-0.8-0.4-1.2c-0.2-0.2-0.4-0.3-0.6-0.3v-0.4c0.6,0,1.2,0.2,1.7,0.5
				c0.5,0.3,0.7,0.9,0.7,1.5c0,0.6-0.2,1.2-0.8,1.6c-0.5,0.3-1.1,0.5-1.7,0.5L13.3,77L13.3,77z M20.3,73.4v0.4
				c-0.3-0.1-0.5-0.1-0.8-0.1h-0.3v3.1h0.2c0.3,0,0.6,0,0.9-0.1v0.5c-0.3-0.1-0.7-0.1-1-0.1h-0.1c0,0.8,0,1.5,0,2.1c0,0.6,0,1,0,1.2
				c0,0.1,0,0.1,0.1,0.2c0.1,0,0.2,0.1,0.2,0.1l0.7,0.1v0.4c-0.3,0-0.6,0-0.9-0.1c-0.3,0-0.7,0-1,0c-0.3,0-0.7,0-1,0s-0.6,0-0.9,0.1
				v-0.4l0.8-0.1c0.1,0,0.1,0,0.2,0c0,0,0.1,0,0.1-0.1c0-0.2,0-0.4,0-0.6c0-0.4,0-1.3,0-2.7c0-0.9,0-1.7,0-2.2c0-0.6,0-0.9,0-1
				c0-0.1,0-0.1-0.1-0.2c-0.1,0-0.2-0.1-0.3-0.1l-0.8-0.1v-0.4c0.4,0,0.8,0,1.1,0.1c0.3,0,0.7,0,0.9,0c0.3,0,0.7,0,1.2,0
				C19.9,73.4,20.1,73.4,20.3,73.4L20.3,73.4z M13.3,81.1v-0.4l0.2,0v0.4C13.4,81.1,13.4,81.1,13.3,81.1z M12.3,77.1h0.2
				c0.3,0,0.6,0,0.8-0.1v0.5c-0.2,0-0.4,0-0.6,0h-0.2c-0.1,0-0.1,0-0.2,0l0,0.8v1.5c0,0.2,0,0.4,0,0.4c0,0.2,0,0.3,0.1,0.5
				c0.1,0.1,0.2,0.1,0.3,0.1l0.7,0v0.4c-0.3,0-0.5,0-0.8,0c-0.3,0-0.7,0-1.1,0s-0.7,0-1,0s-0.7,0-1,0.1v-0.4l0.7-0.1
				c0.1,0,0.1,0,0.2,0c0,0,0.1,0,0.1-0.1c0-0.3,0-0.6,0-0.9c0-0.5,0-1.3,0-2.5c0-0.8,0-1.6,0-2.2c0-0.6,0-1,0-1c0-0.1,0-0.1-0.1-0.2
				c-0.1,0-0.2-0.1-0.3-0.1l-0.8-0.1v-0.4c0.2,0,0.5,0,0.7,0s0.5,0,0.8,0c0.3,0,0.7,0,1.2,0c0.4,0,0.7,0,0.8,0c0.1,0,0.2,0,0.3,0
				v0.4c-0.2,0-0.4-0.1-0.6-0.1c-0.1,0-0.2,0-0.2,0c-0.1,0-0.1,0-0.2,0L12.3,77.1z"/>
			<path id="Trazado_30" class="st2" d="M44.7,70.4c0.1,0.2,0.2,0.5,0.2,0.7c-0.1,0-0.1,0-0.2,0.1V70.4L44.7,70.4z M44.7,67.8
				c0.2,1.2,1,2.2,2.1,2.7c4.8-0.8,7.1-2.1,8-7.3c-0.8-1.2-8.5,2.2-10.1,3.4C44.6,66.5,44.6,67.8,44.7,67.8z M44.7,64V49.6
				c0.1-0.9,0.1-1.7,0-2.6v-8c3.4-1.6,7-2.8,10.1-4.9c0.1,0,0.2,0,0.3-0.1c0,0.1,0.1,0.1,0.1,0.2h0.4c0.1,1.5,0.1,2.9,0,4.4
				c0.2,0.9,0.2,1.8,0.2,2.7c0.2,0.9,0.2,1.9,0.1,2.8c0.4,0.3,0.2,5.3,0.4,6.4c-0.9,1.7-0.1,5-1,7c-0.1,0.9-0.1,1.9,0,2.8
				C51.5,61.7,49.1,63.9,44.7,64L44.7,64z M44.7,36.5c3.2-0.5,7.6-3.4,10.1-5.3c0-0.7,0-1.4-0.1-2.1c-0.5-0.5-0.1-4.7-0.5-6
				c0-3.7-0.6-10.5-4.8-10.8c0-0.1-0.1-0.2-0.1-0.3c-0.4-0.1-0.4,0-0.5-0.2c-1.3,0-2.4-0.2-3.6-0.2c-0.1-0.1-0.2-0.3-0.4-0.3v14.4
				c0.6,1,0.9,2,0.4,2.6l-0.4,0.3V36.5z M40.6,71.7c-0.4-0.2-0.9-0.3-1.3-0.4v-2.9c0.9-1.6,1.9-2.5,4-0.7c0.5,0.8,1,1.7,1.4,2.6v0.8
				C43.3,71.6,42,71.8,40.6,71.7L40.6,71.7z M44.7,11.2v14.4c-1.1-1.9-3.6-4-5.4-3.8V11.6c0.8,0,1.5,0,2,0c0-0.1,0.1-0.1,0.1-0.2
				h0.1c0.1,0.3,0.1,0.3,0.2,0.4c0.1-0.1,0.2-0.2,0.4-0.2v0.2c0.2,0,0.9-0.1,1.1-0.4C43.5,11.4,44.1,10.9,44.7,11.2L44.7,11.2z
				 M44.7,28.5v8.1c-0.3,0-0.5,0.1-0.8,0.1c-2.9-0.2-3.6-4.1-2.4-6C42.5,29.8,43.5,29.1,44.7,28.5L44.7,28.5z M44.7,39v8
				c0-0.4-0.2-0.7-0.4-0.9c-2-0.4-3.5,0.5-5,0.3v-4.1c0.1-0.1,0.1-0.2,0.2-0.3C41.1,40.8,42.8,39.8,44.7,39L44.7,39z M44.7,49.6V64
				h-0.2c-2-1-1.9-1.4-1.9-3.4C42.8,59.5,44.3,53.6,44.7,49.6L44.7,49.6z M44.7,66.5c-0.1,0-0.1,0.1-0.2,0.1c0,0.4,0.1,0.8,0.2,1.1
				V66.5L44.7,66.5z M39.2,66.1c0.6-1.9,1-3.9,1.2-5.9c0-1.4-0.4-2.7-1.2-3.9L39.2,66.1z M39.2,71.3c-0.3-0.1-0.5-0.1-0.6-0.1
				c0-0.1,0-0.1,0-0.2c-0.2,0-0.4-0.1-0.5-0.2c0.4-0.8,0.8-1.7,1.2-2.4V71.3L39.2,71.3z M39.2,11.6v10.3c-0.3,0-0.6,0.1-0.9,0.3
				c-1.7,0.5-5.7,2.5-4.5,4.9c1.8,2,1.6,1.7,1,4.5c-0.6,1.5-1.4,4.5-3.5,4.5c-0.7-0.4-1.4-0.8-2.1-1.4V18.1c0-0.1,0.1-0.1,0.1-0.2
				c1.5-1.3,2.8-5.8,5.2-5.5c0.5-0.5,1-0.3,1.7-0.3C36.8,11.7,38.1,11.6,39.2,11.6L39.2,11.6z M39.2,42.2v4.1
				c-0.4-0.1-0.9-0.2-1.2-0.4C37.8,44.5,38.3,43.2,39.2,42.2L39.2,42.2z M39.2,56.4c-0.7-1-1.6-1.7-2.7-2.2
				c-3.2-0.5-6.2,2.4-7.2,5.7v4.6c0.1,0.2,0.1,0.3,0.2,0.5c0.1,1.1,0.6,2.1,1.4,2.8c1.1,1.6,2.3,2,4.2,3.1c1.9,0,3.2-2.2,4-4.7
				L39.2,56.4L39.2,56.4z M29.3,43.9v-3.6C29.7,41.7,29.9,43.3,29.3,43.9z M29.3,16.1c1-1.2,1.8-2.8,1.6-3.2c-0.2,0-0.3,0-0.5,0
				l-0.1-0.2c-0.3,0-0.7,0.1-1.1,0.2L29.3,16.1z M29.3,12.9v3.2c-0.4,0.7-1.1,1.2-1.9,1.5c-1.5-0.7-2.3-2.3-2.2-4
				c0.9-0.5,1.9-0.8,2.9-0.6c0,0,0-0.1,0.1-0.1C28.6,13,29,13,29.3,12.9L29.3,12.9z M29.3,18.1v16.6c-3.9-3.4-5.1-10.2-1.7-14.2
				C27.8,20.3,28,20.1,29.3,18.1L29.3,18.1z M29.3,40.3c-0.1-0.5-0.3-1-0.4-1.4c-2.5-5-4.8-10.2-6.8-15.5c-0.1-0.6-0.3-1.2-0.6-1.6
				v16.3c1.5,1.8,3.4,3.6,5,5.4c1.5,0.8,2.4,0.8,2.8,0.4L29.3,40.3L29.3,40.3z M29.3,59.9v4.6C28.8,63,28.8,61.4,29.3,59.9z
				 M21.5,67.7V49c0.7-0.6,1.7-0.8,2.6-0.6c3.6,2.5,2.5,12.1,2.3,15.6c-0.3,1.3-2.9,1.1-4,2.5C22.2,66.9,21.9,67.3,21.5,67.7
				L21.5,67.7z M21.5,19c0.7,0.6,1.5,1.1,2.4,1.4c1.7,0,1.3-3.1,1.2-3.9c-1.1-2.8-1-2.6-3.6-2.5c0,0,0,0,0,0.1V19z M21.5,14V19
				c-1-1.1-2.1-2.1-3.3-3c0-0.1,0-0.2,0-0.3c0.8-0.9,2-1.3,3.2-1.3C21.5,14.3,21.5,14.2,21.5,14L21.5,14z M21.5,21.8
				c-0.3-0.5-0.7-0.9-1-1.3c-3.6-3.7-4.9-5.6-7-0.8c0,0.5,0.6,3.7,0.1,4.1c0,0.5,0.1,1.1,0.2,1.6c-0.1,0-0.3,0-0.4,0.1
				c0,0.1,0,0.2,0,0.2c0.1,0,0.2,0.1,0.2,0.1v0.4c-0.1,0-0.2,0.1-0.3,0.1c0,0.7,0.1,1.4,0.5,2c0.1,1.3-0.2,10.3,0.2,10.7
				c0,0.6,0.1,4.5-0.5,4.9c0,0.2,0,0.4,0.2,0.5c0,2,0.7,8.2-0.3,9.2c0.1,0.1,0.1,0.1,0.4,0.1c0.1,1,0,2.5,0.1,3.6
				c0.3,0.2,0.6,0.4,0.9,0.5c0.6,0.4,2.5-4.1,2.5-4.2c1.2-3.8,3.1-8.3,3.1-12.2c-0.6-1.3-3.7-4.5-0.1-4.5c0.2,0.4,0.5,0.7,0.8,1.1
				L21.5,21.8L21.5,21.8z M21.5,49v18.7c-0.5,0.5-1.2,0.9-2,1c-1.7-0.7-3.2-1.7-3.2-3.5C17.1,62.3,17.9,51.8,21.5,49L21.5,49z"/>
			<path id="Trazado_31" class="st3" d="M26.8,74.2c0.4,0.3,1,0.3,1.5,0.1c0.6-0.3,1-0.9,1-1.5c0.1-0.9-0.1-1.9-0.6-2.7
				c-0.3-0.9-0.9-1.6-1.6-2.2c-0.1-0.1-0.2-0.1-0.3-0.2v-0.8c0.5,0,0.9,0,1.3,0.2c0.5,0.2,1,0.4,1.4,0.8c0.4,0.4,0.7,0.8,1,1.3
				c0.2,0.4,0.3,0.9,0.4,1.3c0,0.4,0,0.9-0.1,1.3c-0.1,0.6-0.4,1.2-0.8,1.7c-0.8,0.9-1.9,1.4-3,1.5c0,0-0.1,0-0.1,0L26.8,74.2z
				 M24.8,71.8c0.3,0.9,0.9,1.6,1.6,2.2c0.1,0.1,0.2,0.1,0.3,0.2V75c-0.5,0-0.9,0-1.3-0.2c-0.5-0.2-1-0.4-1.4-0.8
				c-0.4-0.4-0.8-0.9-1-1.4c-0.7-1.5-0.4-3.3,0.8-4.5c0.4-0.3,0.8-0.6,1.3-0.8c0.5-0.2,1-0.3,1.5-0.4c0,0,0.1,0,0.1,0v0.8
				c-0.4-0.3-1-0.3-1.5-0.1c-0.6,0.3-1,0.9-1,1.6C24.2,70.1,24.4,71,24.8,71.8z"/>
			<path id="Trazado_32" class="st3" d="M55,78.3v-0.4h0.9L55,75.3l0,0v-1l0.5-1.3h0.3l2.6,6.8c0.1,0.2,0.2,0.4,0.4,0.6
				c0.2,0.1,0.4,0.2,0.6,0.1V81c-0.3,0-0.6,0-0.9-0.1s-0.6,0-0.9,0c-0.3,0-0.6,0-0.9,0S56,81,55.8,81l0-0.4l0.4,0
				c0.1,0,0.2,0,0.3-0.1c0.1,0,0.1-0.1,0.1-0.2c0,0,0-0.1,0-0.1c0-0.1,0-0.1-0.1-0.3L56,78.3L55,78.3z M55,74.3v1l-0.8,2
				c0,0.1,0,0.1-0.1,0.2c0,0,0,0.1,0,0.1c0,0.1,0,0.1,0.1,0.1c0.1,0,0.2,0.1,0.3,0H55v0.4h-0.7c-0.1,0-0.3,0-0.4,0.1
				c-0.1,0.1-0.1,0.2-0.2,0.3l-0.5,1.2c0,0.1-0.1,0.2-0.1,0.3c0,0.1,0,0.1,0,0.2c0,0.1,0,0.2,0.1,0.2c0.1,0.1,0.2,0.1,0.4,0.1l0.4,0
				V81c-0.2,0-0.3,0-0.5-0.1c-0.4,0-0.7,0-1.1,0c-0.2,0-0.3,0-0.4,0v-0.4c0.2,0,0.4-0.1,0.5-0.2c0.2-0.2,0.3-0.4,0.4-0.6L55,74.3
				L55,74.3z M51.9,75.2L51.9,75.2C52,75,52,74.7,52,74.5c0-0.2,0-0.4,0-0.7c0-0.2,0-0.3,0-0.4c0-0.1,0-0.2,0-0.2l-0.1,0V75.2z
				 M35.9,81.1l-2.9-7c0-0.1-0.1-0.2-0.2-0.3c-0.1-0.1-0.2-0.1-0.3-0.2l-0.3-0.1l0-0.4c0.3,0,0.6,0.1,0.9,0.1c0.3,0,0.6,0,0.9,0
				c0.2,0,0.5,0,0.7,0c0.3,0,0.5,0,0.9-0.1l0,0.3l-0.5,0.1c-0.1,0-0.2,0-0.3,0.1c-0.1,0-0.1,0.1-0.1,0.1c0,0,0,0.1,0,0.1
				c0,0,0,0.1,0,0.1l1.9,4.7l1.8-4.3c0-0.1,0.1-0.2,0.1-0.3c0-0.1,0-0.1,0-0.2c0-0.1,0-0.2-0.1-0.3c-0.1-0.1-0.3-0.1-0.4-0.1
				l-0.5-0.1v-0.3c0.1,0,0.3,0,0.4,0s0.3,0,0.5,0c0.2,0,0.5,0,0.7,0c0.2,0,0.5,0,0.7-0.1v0.4c-0.2,0-0.4,0.2-0.5,0.3
				c-0.2,0.2-0.3,0.4-0.4,0.7l-2,4.8c-0.1,0.2-0.2,0.4-0.3,0.7s-0.2,0.6-0.4,1L35.9,81.1z M51.9,73.2v2h-0.3c0-0.5-0.2-0.9-0.6-1.2
				c-0.5-0.3-1.1-0.4-1.7-0.4c0,0.5,0,0.9,0,1.4s0,1.2,0,2.1c0,0.9,0,1.6,0,2.2c0,0.6,0,0.9,0,0.9c0,0.1,0,0.1,0.1,0.2
				c0.1,0,0.2,0.1,0.3,0.1l0.8,0.1V81c-0.3,0-0.7,0-1-0.1c-0.3,0-0.7,0-1.1,0c-0.4,0-0.7,0-1.1,0c-0.4,0-0.7,0-1,0.1v-0.4l0.9-0.1
				c0.1,0,0.1,0,0.2,0c0,0,0.1-0.1,0.1-0.1c0-0.1,0-0.3,0-0.6c0-0.4,0-1.3,0-2.7c0-0.9,0-1.6,0-2.1s0-1,0-1.4
				c-0.6,0-1.1,0.1-1.6,0.4c-0.4,0.3-0.6,0.8-0.6,1.3l-0.4,0c0-0.3,0-0.5,0-0.7c0-0.2,0-0.4,0-0.4l0-0.9c0.5,0,0.9,0,1.2,0
				c0.3,0,0.6,0,0.9,0h2.9c0.2,0,0.5,0,0.8,0S51.4,73.2,51.9,73.2L51.9,73.2z M51.9,80.6C51.9,80.6,51.9,80.6,51.9,80.6L51.8,81
				c0,0,0.1,0,0.1,0C51.9,81,51.9,80.6,51.9,80.6z M40.2,81v-0.4l0.8-0.1c0.1,0,0.1,0,0.2,0c0,0,0.1-0.1,0.1-0.1c0-0.2,0-0.4,0-0.6
				c0-0.4,0-1.3,0-2.7c0-0.9,0-1.7,0-2.3s0-0.9,0-1c0-0.1,0-0.2-0.1-0.2c-0.1,0-0.2-0.1-0.3-0.1l-0.7-0.1v-0.3c0.4,0,0.8,0,1.1,0.1
				c0.3,0,0.6,0,0.9,0c0.3,0,0.6,0,0.9,0s0.7,0,1-0.1v0.4l-0.8,0.1c-0.1,0-0.1,0-0.2,0c0,0-0.1,0-0.1,0.1c0,0.2-0.1,0.4,0,0.6
				c0,0.4,0,1.3,0,2.7c0,0.8,0,1.6,0,2.2c0,0.6,0,1,0,1c0,0.1,0,0.1,0.1,0.2c0.1,0,0.2,0.1,0.2,0.1l0.8,0.1V81c-0.3,0-0.7,0-1-0.1
				s-0.7,0-1,0c-0.4,0-0.7,0-1.1,0C40.9,81,40.6,81,40.2,81z"/>
			<path id="Trazado_33" class="st3" d="M19.9,81v-0.4l0,0L19.9,81L19.9,81z M19.9,77.1c0.2,0,0.4,0.1,0.5,0.3
				c0.3,0.4,0.5,1,0.5,1.5c0,0.1,0,0.2,0,0.4c0,0.5,0.1,1,0.5,1.4c0.2,0.1,0.3,0.2,0.5,0.2c0.3,0.1,0.6,0.1,0.9,0.1
				c0.1,0,0.3,0,0.3,0c0.1,0,0.1,0,0.2,0v-0.3h0c-0.4,0-0.7-0.4-0.7-1.2c0-0.1,0-0.3,0-0.4c0-0.6-0.2-1.1-0.6-1.6
				c-0.4-0.4-1-0.6-1.6-0.6v-0.1c0.6,0,1.1-0.3,1.5-0.6c0.3-0.3,0.5-0.8,0.5-1.2c0-0.5-0.2-1-0.6-1.2c-0.5-0.3-1.1-0.5-1.7-0.4h-0.3
				v0.4c0.2,0,0.5,0.1,0.6,0.3c0.3,0.3,0.5,0.7,0.4,1.2c0,0.4-0.1,0.9-0.5,1.2c-0.2,0.1-0.4,0.2-0.6,0.3L19.9,77.1z M12.9,76.8
				c0.2-0.1,0.4-0.2,0.5-0.3c0.3-0.4,0.5-0.8,0.5-1.3c0-0.4-0.1-0.8-0.4-1.2c-0.2-0.2-0.4-0.3-0.6-0.3v-0.4c0.6,0,1.2,0.2,1.7,0.5
				c0.5,0.3,0.7,0.9,0.7,1.5c0,0.6-0.2,1.2-0.8,1.6c-0.5,0.3-1.1,0.5-1.7,0.5V76.8L12.9,76.8z M19.9,73.2v0.4
				c-0.3-0.1-0.5-0.1-0.8-0.1h-0.3v3.1H19c0.3,0,0.6,0,0.9-0.1v0.5c-0.3-0.1-0.7-0.1-1-0.1h-0.1c0,0.8,0,1.5,0,2.1c0,0.6,0,1,0,1.2
				c0,0.1,0,0.1,0.1,0.2c0.1,0,0.2,0.1,0.2,0.1l0.7,0.1V81c-0.3,0-0.6,0-0.9-0.1c-0.3,0-0.7,0-1,0s-0.7,0-1,0c-0.3,0-0.6,0-0.9,0.1
				v-0.4l0.8-0.1c0.1,0,0.1,0,0.2,0c0,0,0.1-0.1,0.1-0.1c0-0.2,0-0.4,0-0.6c0-0.4,0-1.3,0-2.7c0-0.9,0-1.7,0-2.2c0-0.6,0-0.9,0-1
				c0-0.1,0-0.1-0.1-0.2c-0.1,0-0.2-0.1-0.3-0.1L16,73.6v-0.4c0.4,0,0.8,0,1.1,0.1c0.3,0,0.7,0,0.9,0c0.3,0,0.7,0,1.2,0
				C19.5,73.2,19.7,73.2,19.9,73.2L19.9,73.2z M12.9,81v-0.4l0.2,0V81C13,81,13,81,12.9,81z M11.9,76.9h0.2c0.3,0,0.6,0,0.8-0.1v0.5
				c-0.2,0-0.4,0-0.6,0H12c-0.1,0-0.1,0-0.2,0l0,0.8v1.5c0,0.2,0,0.4,0,0.4c0,0.2,0,0.3,0.1,0.5c0.1,0.1,0.2,0.1,0.3,0.1l0.7,0V81
				c-0.3,0-0.6,0-0.8,0c-0.3,0-0.7,0-1.1,0s-0.7,0-1,0S9.3,81,9,81v-0.4l0.7-0.1c0.1,0,0.1,0,0.2,0c0,0,0.1-0.1,0.1-0.1
				c0-0.3,0-0.6,0-0.8c0-0.5,0-1.3,0-2.5c0-0.8,0-1.6,0-2.2c0-0.6,0-1,0-1c0-0.1,0-0.1-0.1-0.2c-0.1,0-0.2-0.1-0.3-0.1L9,73.6v-0.4
				c0.2,0,0.5,0,0.7,0.1s0.5,0,0.8,0c0.3,0,0.7,0,1.2,0s0.7,0,0.8,0h0.3v0.4c-0.2,0-0.4-0.1-0.6-0.1h-0.3c-0.1,0-0.1,0-0.2,0V76.9z"
				/>
			<path id="Trazado_34" class="st4" d="M44.2,70.2c0.1,0.2,0.2,0.5,0.2,0.7c-0.1,0-0.1,0-0.2,0.1V70.2L44.2,70.2z M44.2,67.7
				c0.2,1.2,1,2.2,2.1,2.7c4.8-0.8,7.1-2.1,8-7.3c-0.8-1.2-8.5,2.2-10.1,3.4V67.7z M44.2,63.9V49.5c0.1-0.9,0.1-1.8,0-2.6v-8
				c3.4-1.6,7-2.8,10.1-4.9c0.1,0,0.2,0,0.3-0.1c0,0.1,0.1,0.1,0.1,0.2h0.4c0.1,1.5,0.1,2.9,0,4.4c0.2,0.9,0.2,1.8,0.2,2.7
				c0.2,0.9,0.2,1.9,0.1,2.8c0.4,0.3,0.2,5.3,0.4,6.4c-0.9,1.7-0.1,5-1,7c-0.1,0.9-0.1,1.8,0,2.8C51.1,61.5,48.7,63.8,44.2,63.9
				L44.2,63.9z M44.2,36.4c3.2-0.5,7.6-3.4,10.1-5.3c0-0.7,0-1.4-0.1-2.1c-0.5-0.5-0.1-4.6-0.5-6c0-3.7-0.6-10.5-4.8-10.8
				c0-0.1-0.1-0.2-0.1-0.3c-0.4-0.1-0.4,0-0.5-0.2c-1.3,0-2.4-0.2-3.6-0.2c-0.1-0.1-0.2-0.3-0.4-0.3v14.4c0.6,1,0.9,2,0.4,2.6
				c-0.1,0.1-0.3,0.2-0.4,0.3L44.2,36.4z M40.2,71.5c-0.4-0.2-0.9-0.3-1.3-0.4v-2.9c0.9-1.6,1.9-2.5,4-0.7c0.5,0.8,1,1.7,1.4,2.6V71
				C42.9,71.5,41.5,71.6,40.2,71.5L40.2,71.5z M44.2,11.1v14.4c-1.1-1.9-3.6-4-5.4-3.8V11.5c0.8,0,1.5,0,2,0c0-0.1,0.1-0.1,0.1-0.2
				h0.1c0.1,0.3,0.1,0.3,0.2,0.4c0.1-0.1,0.2-0.2,0.4-0.2v0.2c0.2,0,0.9-0.1,1.1-0.4C43.1,11.3,43.7,10.8,44.2,11.1L44.2,11.1z
				 M44.2,28.3v8.1c-0.3,0-0.5,0.1-0.8,0.1c-2.9-0.2-3.6-4.1-2.4-6.1C42.1,29.7,43.1,29,44.2,28.3z M44.2,38.9v8
				c0-0.4-0.2-0.7-0.4-0.9c-2-0.4-3.5,0.5-5,0.3v-4.1c0.1-0.1,0.1-0.2,0.2-0.3C40.7,40.6,42.4,39.7,44.2,38.9L44.2,38.9z M44.2,49.5
				v14.4h-0.2c-2-1-1.9-1.4-1.9-3.4C42.4,59.4,43.9,53.4,44.2,49.5L44.2,49.5z M44.2,66.4c-0.1,0-0.1,0.1-0.2,0.1
				c0,0.4,0.1,0.8,0.2,1.1V66.4L44.2,66.4z M38.8,66c0.6-1.9,1-3.9,1.2-5.9c0-1.4-0.4-2.7-1.2-3.9V66z M38.8,71.2
				c-0.3-0.1-0.5-0.1-0.6-0.1c0-0.1,0-0.1,0-0.2c-0.3,0-0.5-0.1-0.5-0.2c0.4-0.8,0.8-1.7,1.2-2.4V71.2L38.8,71.2z M38.8,11.5v10.3
				c-0.3,0-0.6,0.1-0.9,0.3c-1.7,0.5-5.7,2.5-4.5,4.9c1.8,2,1.6,1.7,1,4.5C33.9,32.9,33.1,36,31,36c-0.7-0.4-1.4-0.8-2.1-1.4V18
				c0-0.1,0.1-0.1,0.1-0.2c1.5-1.3,2.8-5.8,5.2-5.5c0.5-0.5,1-0.3,1.7-0.3C36.9,11.5,37.9,11.4,38.8,11.5L38.8,11.5z M38.8,42.1v4.1
				c-0.4-0.1-0.9-0.2-1.2-0.4C37.4,44.4,37.9,43,38.8,42.1L38.8,42.1z M38.8,56.2c-0.7-1-1.6-1.7-2.7-2.2c-3.2-0.5-6.2,2.4-7.2,5.7
				v4.6c0.1,0.2,0.1,0.3,0.2,0.5c0.1,1.1,0.6,2,1.4,2.8c1.1,1.6,2.3,2,4.2,3.1c1.9,0,3.2-2.2,4-4.7L38.8,56.2L38.8,56.2z M28.9,43.8
				v-3.6C29.3,41.6,29.5,43.1,28.9,43.8L28.9,43.8z M28.9,15.9c1-1.2,1.8-2.8,1.6-3.2c-0.2,0-0.3,0-0.5,0L30,12.5
				c-0.3,0-0.7,0.1-1.1,0.2V15.9z M28.9,12.7v3.2c-0.4,0.7-1.1,1.2-1.9,1.5c-1.7-0.7-2.2-2.5-2.2-4c0.9-0.5,1.9-0.8,2.9-0.6
				c0,0,0-0.1,0.1-0.1C28.2,12.8,28.6,12.8,28.9,12.7L28.9,12.7z M28.9,18v16.7c-3.9-3.4-5.1-10.2-1.7-14.2
				C27.4,20.2,27.6,20,28.9,18L28.9,18z M28.9,40.2c-0.1-0.5-0.3-0.9-0.4-1.4c-2.5-5-4.8-10.2-6.8-15.4c-0.1-0.6-0.3-1.2-0.6-1.6V38
				c1.5,1.8,3.4,3.6,5,5.4c1.5,0.8,2.4,0.8,2.8,0.4L28.9,40.2L28.9,40.2z M28.9,59.7v4.6C28.4,62.9,28.4,61.2,28.9,59.7z M21.1,67.5
				V48.8c0.7-0.6,1.7-0.8,2.6-0.6c3.6,2.5,2.5,12.1,2.3,15.6c-0.3,1.3-2.9,1.2-4,2.5C21.8,66.8,21.5,67.2,21.1,67.5L21.1,67.5z
				 M21.1,18.8c0.7,0.6,1.5,1.1,2.4,1.5c1.7,0,1.3-3.1,1.2-3.9c-1.1-2.8-1-2.6-3.6-2.5c0,0,0,0,0,0.1L21.1,18.8z M21.1,13.9v4.9
				c-1-1.1-2.1-2.1-3.3-3c0-0.1,0-0.2,0-0.3c0.8-0.9,2-1.3,3.2-1.3C21,14.1,21.1,14,21.1,13.9L21.1,13.9z M21.1,21.7
				c-0.3-0.4-0.6-0.9-1-1.3c-3.6-3.7-4.9-5.6-7-0.8c0,0.5,0.5,3.7,0.1,4.1c0,0.6,0.1,1.1,0.2,1.6c-0.1,0-0.3,0-0.4,0.1
				c0,0.1,0,0.2,0,0.2c0.1,0,0.1,0.1,0.2,0.1v0.4c-0.1,0-0.2,0.1-0.3,0.1c0,0.7,0.1,1.4,0.5,2c0.1,1.3-0.2,10.3,0.2,10.7
				c0,0.6,0.1,4.5-0.5,4.9c0,0.2,0,0.4,0.2,0.5c0,2,0.7,8.2-0.3,9.1c0.1,0.1,0.1,0.1,0.4,0.1c0.1,1,0,2.5,0.1,3.6
				c0.3,0.2,0.6,0.4,0.9,0.5c0.6,0.4,2.5-4.1,2.5-4.2c1.2-3.8,3.1-8.3,3.1-12.2c-0.6-1.3-3.7-4.5-0.1-4.5c0.2,0.4,0.5,0.7,0.8,1.1
				L21.1,21.7L21.1,21.7z M21.1,48.8v18.7c-0.5,0.5-1.2,0.9-2,1c-1.7-0.7-3.2-1.7-3.2-3.5C16.7,62.1,17.5,51.7,21.1,48.8L21.1,48.8z
				"/>
		</g>
	</g>
	<rect class="st5" width="277" height="91"/>
</g>
</svg>
