<?xml version="1.0" encoding="UTF-8" standalone="no"?>
<svg
   xmlns:dc="http://purl.org/dc/elements/1.1/"
   xmlns:cc="http://creativecommons.org/ns#"
   xmlns:rdf="http://www.w3.org/1999/02/22-rdf-syntax-ns#"
   xmlns:svg="http://www.w3.org/2000/svg"
   xmlns="http://www.w3.org/2000/svg"
   height="20.363636"
   width="23.272728"
   id="svg835"
   version="1.1"
   viewBox="0 0 512.00002 447.99999"
   role="img"
   class="svg-inline--fa fa-camera fa-w-16"
   data-icon="camera"
   data-prefix="fas"
   focusable="false"
   aria-hidden="true">
  <metadata
     id="metadata841">
    <rdf:RDF>
      <cc:Work
         rdf:about="">
        <dc:format>image/svg+xml</dc:format>
        <dc:type
           rdf:resource="http://purl.org/dc/dcmitype/StillImage" />
        <dc:title></dc:title>
      </cc:Work>
    </rdf:RDF>
  </metadata>
  <defs
     id="defs839" />
  <path
     id="path833"
     d="m 512,112 v 288 c 0,26.5 -21.5,48 -48,48 H 48 C 21.5,448 0,426.5 0,400 V 112 C 0,85.5 21.5,64 48,64 h 88 L 148.3,31.1 C 155.3,12.4 173.2,0 193.2,0 h 125.5 c 20,0 37.9,12.4 44.9,31.1 L 376,64 h 88 c 26.5,0 48,21.5 48,48 z M 376,256 c 0,-66.2 -53.8,-120 -120,-120 -66.2,0 -120,53.8 -120,120 0,66.2 53.8,120 120,120 66.2,0 120,-53.8 120,-120 z m -32,0 c 0,48.5 -39.5,88 -88,88 -48.5,0 -88,-39.5 -88,-88 0,-48.5 39.5,-88 88,-88 48.5,0 88,39.5 88,88 z"
     fill="currentColor" />
</svg>
