<svg xmlns="http://www.w3.org/2000/svg" width="48" height="48" viewBox="0 0 53.522 53.521">
  <path id="Trazado_40" data-name="Trazado 40" d="M663.23,15.328a26.761,26.761,0,1,1-26.753,26.823A26.825,26.825,0,0,1,663.23,15.328Zm1.855,16.134v8.77h8.974c-.419-2.81-.808-5.51-1.248-8.2a.876.876,0,0,0-.64-.543C669.836,31.447,667.5,31.462,665.085,31.462Zm-3.7,0c-1.627,0-3.191,0-4.754,0-2.942-.009-2.986-.017-3.433,2.912-.294,1.926-.438,3.875-.652,5.833h8.839ZM652.416,43.93c.427,2.84.823,5.541,1.26,8.236a.791.791,0,0,0,.548.52c2.368.036,4.737.024,7.16.024V43.93Zm12.659,8.784c2.1,0,4.073,0,6.047,0,1.952,0,1.586.189,1.9-1.584.411-2.356.651-4.741.973-7.173h-8.916Zm-15.113,0-1.1-8.756h-8.616A20.89,20.89,0,0,0,642.5,52.2a.928.928,0,0,0,.622.483C645.409,52.723,647.7,52.71,649.962,52.71Zm0-21.245c-2.27,0-4.529-.013-6.787.02a.907.907,0,0,0-.651.436,20.53,20.53,0,0,0-2.272,8.295h8.606Zm36.266,8.8a21.069,21.069,0,0,0-2.254-8.283.928.928,0,0,0-.621-.487c-2.292-.035-4.585-.022-6.845-.022l1.1,8.792Zm-8.62,3.679-1.1,8.768c2.273,0,4.567.013,6.861-.022a.937.937,0,0,0,.612-.5,21.057,21.057,0,0,0,2.245-8.246Zm-6.063-16.221c-1.425-3.389-2.971-6.532-6.442-8.358v8.421c1.982,0,3.879,0,5.777,0C671.057,27.781,671.23,27.751,671.549,27.721ZM665.074,64.61c2.123.012,6.019-5.693,6.255-8.152h-6.255ZM661.38,27.784V19.323c-3.471,1.924-5.064,5.013-6.472,8.461h6.472Zm-6.313,28.654c.686,3.332,4.068,7.7,6.3,8.185V56.438Zm17.11-35.7,3.319,6.974h5.847A23.491,23.491,0,0,0,672.177,20.736ZM681.339,56.4c-1.908,0-3.556.033-5.2-.017-.639-.019-.865.239-1.081.792-.519,1.326-1.106,2.627-1.718,3.913-.361.758-.823,1.469-1.356,2.406A22.981,22.981,0,0,0,681.339,56.4ZM654.154,20.842a22.727,22.727,0,0,0-9.063,6.972c2.043,0,3.855.009,5.666-.015a.67.67,0,0,0,.486-.336C652.206,25.311,653.145,23.149,654.154,20.842ZM645.078,56.42a23.172,23.172,0,0,0,9.151,6.954L650.9,56.42Z" transform="translate(-636.477 -15.328)" fill="#fdbe56"/>
</svg>
