<svg xmlns="http://www.w3.org/2000/svg" width="50" height="40" viewBox="0 0 51.632 39.923">
  <g id="Grupo_24" data-name="Grupo 24" transform="translate(-655.953 -284.904)">
    <path id="Trazado_39" data-name="Trazado 39" d="M681.682,324.826q-10.26,0-20.521,0c-3.314,0-5.2-1.895-5.206-5.215q0-14.746,0-29.491c0-3.316,1.9-5.211,5.21-5.212q20.633,0,41.266,0c3.226,0,5.149,1.925,5.151,5.161q.006,14.858,0,29.716a4.715,4.715,0,0,1-5.044,5.044Q692.11,324.833,681.682,324.826Zm-18.789-35.2a3.8,3.8,0,0,0,.3.5,109.867,109.867,0,0,0,15.176,14.4c3.021,2.257,3.782,2.259,6.8,0a109.6,109.6,0,0,0,15.173-14.4,2.878,2.878,0,0,0,.281-.5Zm36.6,30.462.238-.264-10.162-12.529c-1.81,1.078-3.325,2.035-4.891,2.9a5.684,5.684,0,0,1-5.785.015c-1.595-.881-3.14-1.853-4.934-2.918l-10.36,12.8Zm3.3-4.048V294.983l-9.491,9.437Zm-42.1.049,9.516-11.651L660.7,294.92Z" transform="translate(0)" fill="#fdbe56"/>
  </g>
</svg>
